<?xml version="1.0" encoding="utf-8"?>
<!-- Generator: Adobe Illustrator 27.9.6, SVG Export Plug-In . SVG Version: 9.03 Build 54986)  -->
<svg version="1.1" id="Capa_1" xmlns="http://www.w3.org/2000/svg" xmlns:xlink="http://www.w3.org/1999/xlink" x="0px" y="0px"
	 viewBox="0 0 710.3 160.9" style="enable-background:new 0 0 710.3 160.9;" xml:space="preserve">
<style type="text/css">
	.st0{fill:#437E9F;}
	.st1{fill:#FFFFFF;}
</style>
<g>
	<path class="st0" d="M53.2,27.9H40.5C23,27.9,8.9,42,8.9,59.5v86.4L53.2,27.9z"/>
	<path class="st0" d="M268.3,27.9l0,118.1h0.2c17.5,0,31.6-14.2,31.6-31.6V27.9H268.3z"/>
	
		<rect x="236.4" y="4" transform="matrix(-1 7.430403e-05 -7.430403e-05 -1 504.6937 31.8853)" class="st0" width="31.8" height="23.8"/>
	<g>
		<path class="st0" d="M348.1,108.7h-3c-0.3,0-0.6-0.1-0.8-0.3c-0.2-0.2-0.4-0.4-0.5-0.7l-2.6-6.8h-12.7l-2.6,6.8
			c-0.1,0.2-0.2,0.4-0.5,0.6c-0.2,0.2-0.5,0.3-0.8,0.3h-3l11.3-28.2h3.9L348.1,108.7z M340.1,98.2l-4.4-11.5
			c-0.1-0.3-0.3-0.7-0.4-1.2s-0.3-0.9-0.4-1.4c-0.3,1.1-0.6,2-0.8,2.7l-4.4,11.5H340.1z M342.3,72.2l-6.4,5.6
			c-0.2,0.2-0.4,0.3-0.6,0.3c-0.2,0-0.4,0.1-0.7,0.1h-2.5l4.5-5.4c0.2-0.3,0.4-0.5,0.7-0.5c0.2-0.1,0.6-0.1,1-0.1H342.3z"/>
		<path class="st0" d="M355.2,92.7c0.6-1.4,1.4-2.4,2.3-3.2c0.9-0.8,2-1.2,3.4-1.2c0.4,0,0.8,0,1.2,0.1c0.4,0.1,0.7,0.2,1,0.4
			l-0.3,2.6c-0.1,0.3-0.3,0.5-0.6,0.5c-0.2,0-0.5,0-0.8-0.1c-0.4-0.1-0.8-0.1-1.2-0.1c-0.6,0-1.2,0.1-1.7,0.3s-0.9,0.5-1.3,0.8
			c-0.4,0.4-0.7,0.8-1,1.3c-0.3,0.5-0.6,1.1-0.8,1.8v12.6h-3.5v-20h2c0.4,0,0.6,0.1,0.8,0.2s0.2,0.4,0.3,0.7L355.2,92.7z"/>
		<path class="st0" d="M382.6,105.9c-0.4,0.5-1,1-1.6,1.4c-0.6,0.4-1.3,0.7-1.9,1c-0.7,0.2-1.4,0.4-2.1,0.6
			c-0.7,0.1-1.5,0.2-2.2,0.2c-1.4,0-2.6-0.2-3.8-0.7s-2.2-1.1-3-2c-0.8-0.9-1.5-2-2-3.3s-0.7-2.8-0.7-4.6c0-1.4,0.2-2.7,0.6-3.9
			c0.4-1.2,1-2.3,1.8-3.1c0.8-0.9,1.8-1.6,2.9-2.1c1.2-0.5,2.5-0.8,3.9-0.8c1.2,0,2.3,0.2,3.3,0.6c1,0.4,1.9,1,2.6,1.7
			c0.7,0.8,1.3,1.7,1.7,2.8c0.4,1.1,0.6,2.4,0.6,3.8c0,0.6-0.1,0.9-0.2,1.1s-0.3,0.3-0.7,0.3h-13.3c0,1.3,0.2,2.4,0.5,3.3
			c0.3,0.9,0.7,1.7,1.3,2.3c0.6,0.6,1.2,1.1,2,1.4c0.8,0.3,1.6,0.5,2.6,0.5c0.9,0,1.6-0.1,2.3-0.3c0.6-0.2,1.2-0.4,1.6-0.7
			c0.5-0.2,0.8-0.5,1.2-0.7c0.3-0.2,0.6-0.3,0.8-0.3c0.3,0,0.5,0.1,0.7,0.3L382.6,105.9z M379.8,96.5c0-0.8-0.1-1.6-0.3-2.2
			c-0.2-0.7-0.6-1.3-1-1.8c-0.4-0.5-1-0.9-1.6-1.1c-0.6-0.3-1.3-0.4-2.1-0.4c-1.7,0-3,0.5-4,1.5c-1,1-1.6,2.3-1.8,4.1H379.8z"/>
		<path class="st0" d="M387.7,91.5c1.1-1.1,2.3-1.9,3.6-2.4s2.7-0.8,4.2-0.8c1.1,0,2.1,0.2,3,0.6c0.9,0.4,1.6,0.9,2.2,1.5
			s1,1.5,1.3,2.4c0.3,0.9,0.5,2,0.5,3.1v12.8h-1.6c-0.3,0-0.6-0.1-0.8-0.2c-0.2-0.1-0.3-0.3-0.4-0.7l-0.4-1.9
			c-0.5,0.5-1,0.9-1.5,1.3c-0.5,0.4-1,0.7-1.6,0.9c-0.6,0.3-1.1,0.5-1.8,0.6c-0.6,0.1-1.3,0.2-2.1,0.2c-0.8,0-1.5-0.1-2.2-0.3
			c-0.7-0.2-1.3-0.5-1.8-1c-0.5-0.4-0.9-1-1.2-1.6c-0.3-0.7-0.4-1.4-0.4-2.4c0-0.8,0.2-1.5,0.7-2.3c0.4-0.7,1.1-1.4,2.1-1.9
			s2.2-1,3.8-1.4c1.6-0.4,3.5-0.6,5.8-0.6v-1.6c0-1.5-0.3-2.7-1-3.5c-0.7-0.8-1.6-1.2-2.9-1.2c-0.9,0-1.6,0.1-2.2,0.3
			c-0.6,0.2-1.1,0.5-1.5,0.7c-0.4,0.3-0.8,0.5-1.1,0.7s-0.6,0.3-0.9,0.3c-0.2,0-0.4-0.1-0.6-0.2c-0.2-0.1-0.3-0.3-0.4-0.5
			L387.7,91.5z M399,99.7c-1.6,0.1-3,0.2-4.1,0.4c-1.1,0.2-2.1,0.5-2.8,0.8c-0.7,0.3-1.2,0.7-1.6,1.2c-0.3,0.4-0.5,0.9-0.5,1.5
			c0,0.5,0.1,1,0.3,1.4c0.2,0.4,0.4,0.7,0.7,0.9c0.3,0.2,0.6,0.4,1,0.5s0.8,0.2,1.3,0.2c0.6,0,1.2-0.1,1.7-0.2s1-0.3,1.4-0.5
			c0.5-0.2,0.9-0.5,1.3-0.8c0.4-0.3,0.8-0.7,1.2-1.1V99.7z"/>
		<path class="st0" d="M420.4,92c-0.2,0.3-0.4,0.4-0.7,0.4c-0.2,0-0.4-0.1-0.7-0.2c-0.2-0.1-0.6-0.3-0.9-0.5
			c-0.4-0.2-0.8-0.3-1.3-0.5S415.7,91,415,91c-0.6,0-1.1,0.1-1.6,0.2s-0.9,0.4-1.2,0.6c-0.3,0.3-0.6,0.6-0.8,0.9
			c-0.2,0.3-0.3,0.7-0.3,1.1c0,0.5,0.1,0.9,0.4,1.3c0.3,0.3,0.7,0.6,1.2,0.9c0.5,0.2,1,0.5,1.7,0.7s1.3,0.4,1.9,0.6
			c0.7,0.2,1.3,0.5,1.9,0.7c0.6,0.3,1.2,0.6,1.7,1c0.5,0.4,0.9,0.9,1.2,1.4s0.4,1.3,0.4,2.1c0,0.9-0.2,1.8-0.5,2.6
			c-0.3,0.8-0.8,1.5-1.5,2s-1.4,1-2.4,1.3c-0.9,0.3-2,0.5-3.2,0.5c-1.4,0-2.7-0.2-3.8-0.7s-2.1-1-2.9-1.7l0.8-1.3
			c0.1-0.2,0.2-0.3,0.4-0.4s0.3-0.1,0.6-0.1c0.2,0,0.5,0.1,0.7,0.3c0.3,0.2,0.6,0.4,1,0.6c0.4,0.2,0.8,0.4,1.4,0.6
			c0.5,0.2,1.2,0.3,2,0.3c0.7,0,1.3-0.1,1.8-0.3c0.5-0.2,0.9-0.4,1.3-0.7c0.3-0.3,0.6-0.6,0.8-1c0.2-0.4,0.2-0.8,0.2-1.3
			c0-0.6-0.1-1-0.4-1.4c-0.3-0.4-0.7-0.7-1.2-0.9c-0.5-0.3-1-0.5-1.7-0.7s-1.3-0.4-1.9-0.6c-0.7-0.2-1.3-0.5-1.9-0.7
			c-0.6-0.3-1.2-0.6-1.7-1c-0.5-0.4-0.9-0.9-1.2-1.5c-0.3-0.6-0.4-1.3-0.4-2.2c0-0.8,0.2-1.5,0.5-2.2c0.3-0.7,0.8-1.3,1.4-1.9
			c0.6-0.5,1.3-1,2.2-1.3c0.9-0.3,1.9-0.5,3-0.5c1.3,0,2.5,0.2,3.5,0.6c1,0.4,1.9,1,2.7,1.7L420.4,92z"/>
		<path class="st0" d="M456.1,105.6l0,3.1h-17.4V80.5h17.4v3.1h-13.6v9.4h11v3h-11v9.6H456.1z"/>
		<path class="st0" d="M461.1,108.7v-20h2.1c0.5,0,0.8,0.2,0.9,0.7l0.3,2c0.7-0.9,1.6-1.6,2.5-2.2c0.9-0.6,2-0.9,3.2-0.9
			c1.3,0,2.4,0.4,3.3,1.1c0.8,0.7,1.4,1.8,1.8,3c0.3-0.7,0.7-1.3,1.1-1.9c0.5-0.5,1-1,1.5-1.3c0.6-0.3,1.2-0.6,1.8-0.7
			c0.6-0.2,1.3-0.2,1.9-0.2c1.1,0,2,0.2,2.8,0.5c0.8,0.3,1.5,0.8,2.1,1.5c0.6,0.6,1,1.4,1.3,2.4c0.3,0.9,0.5,2,0.5,3.2v12.7h-3.5V96
			c0-1.6-0.3-2.7-1-3.6s-1.7-1.2-3-1.2c-0.6,0-1.1,0.1-1.6,0.3c-0.5,0.2-1,0.5-1.4,0.9c-0.4,0.4-0.7,0.9-0.9,1.5
			c-0.2,0.6-0.3,1.3-0.3,2.1v12.7h-3.5V96c0-1.6-0.3-2.8-1-3.6c-0.6-0.8-1.6-1.2-2.8-1.2c-0.9,0-1.7,0.2-2.4,0.7
			c-0.7,0.5-1.4,1.1-2,1.9v14.9H461.1z"/>
		<path class="st0" d="M497.8,91.8c0.8-1,1.8-1.9,2.9-2.5c1.1-0.6,2.4-0.9,3.8-0.9c1.2,0,2.2,0.2,3.1,0.7c0.9,0.4,1.7,1.1,2.4,1.9
			c0.7,0.9,1.2,1.9,1.5,3.2s0.5,2.7,0.5,4.4c0,1.5-0.2,2.8-0.6,4.1c-0.4,1.3-1,2.4-1.7,3.3s-1.6,1.7-2.7,2.2
			c-1.1,0.5-2.3,0.8-3.6,0.8c-1.2,0-2.3-0.2-3.1-0.6s-1.6-1-2.3-1.7v8.8h-3.5V88.7h2.1c0.5,0,0.8,0.2,0.9,0.7L497.8,91.8z
			 M498,103.9c0.6,0.9,1.3,1.5,2.1,1.8c0.8,0.4,1.6,0.5,2.6,0.5c1.9,0,3.3-0.7,4.3-2c1-1.3,1.5-3.2,1.5-5.7c0-1.3-0.1-2.4-0.3-3.3
			c-0.2-0.9-0.6-1.7-1-2.3c-0.4-0.6-1-1-1.6-1.3c-0.6-0.3-1.3-0.4-2.1-0.4c-1.1,0-2.1,0.3-3,0.8c-0.9,0.5-1.7,1.3-2.4,2.2V103.9z"/>
		<path class="st0" d="M520.8,92.7c0.6-1.4,1.4-2.4,2.3-3.2c0.9-0.8,2-1.2,3.4-1.2c0.4,0,0.8,0,1.2,0.1s0.7,0.2,1,0.4l-0.3,2.6
			c-0.1,0.3-0.3,0.5-0.6,0.5c-0.2,0-0.5,0-0.8-0.1c-0.4-0.1-0.8-0.1-1.2-0.1c-0.6,0-1.2,0.1-1.7,0.3s-0.9,0.5-1.3,0.8
			c-0.4,0.4-0.7,0.8-1,1.3c-0.3,0.5-0.6,1.1-0.8,1.8v12.6h-3.5v-20h2c0.4,0,0.6,0.1,0.8,0.2s0.2,0.4,0.3,0.7L520.8,92.7z"/>
		<path class="st0" d="M548.2,105.9c-0.4,0.5-1,1-1.6,1.4c-0.6,0.4-1.3,0.7-1.9,1c-0.7,0.2-1.4,0.4-2.1,0.6
			c-0.7,0.1-1.5,0.2-2.2,0.2c-1.4,0-2.6-0.2-3.8-0.7s-2.2-1.1-3-2c-0.8-0.9-1.5-2-2-3.3s-0.7-2.8-0.7-4.6c0-1.4,0.2-2.7,0.6-3.9
			c0.4-1.2,1-2.3,1.8-3.1c0.8-0.9,1.8-1.6,2.9-2.1c1.2-0.5,2.5-0.8,3.9-0.8c1.2,0,2.3,0.2,3.3,0.6c1,0.4,1.9,1,2.6,1.7
			c0.7,0.8,1.3,1.7,1.7,2.8c0.4,1.1,0.6,2.4,0.6,3.8c0,0.6-0.1,0.9-0.2,1.1s-0.3,0.3-0.7,0.3h-13.3c0,1.3,0.2,2.4,0.5,3.3
			c0.3,0.9,0.7,1.7,1.3,2.3c0.6,0.6,1.2,1.1,2,1.4c0.8,0.3,1.6,0.5,2.6,0.5c0.9,0,1.6-0.1,2.3-0.3c0.6-0.2,1.2-0.4,1.6-0.7
			c0.5-0.2,0.8-0.5,1.2-0.7c0.3-0.2,0.6-0.3,0.8-0.3c0.3,0,0.5,0.1,0.7,0.3L548.2,105.9z M545.4,96.5c0-0.8-0.1-1.6-0.3-2.2
			c-0.2-0.7-0.6-1.3-1-1.8c-0.4-0.5-1-0.9-1.6-1.1c-0.6-0.3-1.3-0.4-2.1-0.4c-1.7,0-3,0.5-4,1.5c-1,1-1.6,2.3-1.8,4.1H545.4z"/>
		<path class="st0" d="M565.4,92c-0.2,0.3-0.4,0.4-0.7,0.4c-0.2,0-0.4-0.1-0.7-0.2c-0.2-0.1-0.6-0.3-0.9-0.5
			c-0.4-0.2-0.8-0.3-1.3-0.5s-1.1-0.2-1.8-0.2c-0.6,0-1.1,0.1-1.6,0.2s-0.9,0.4-1.2,0.6c-0.3,0.3-0.6,0.6-0.8,0.9
			c-0.2,0.3-0.3,0.7-0.3,1.1c0,0.5,0.1,0.9,0.4,1.3c0.3,0.3,0.7,0.6,1.2,0.9c0.5,0.2,1,0.5,1.7,0.7s1.3,0.4,1.9,0.6
			c0.7,0.2,1.3,0.5,1.9,0.7c0.6,0.3,1.2,0.6,1.7,1c0.5,0.4,0.9,0.9,1.2,1.4s0.4,1.3,0.4,2.1c0,0.9-0.2,1.8-0.5,2.6
			c-0.3,0.8-0.8,1.5-1.5,2s-1.4,1-2.4,1.3c-0.9,0.3-2,0.5-3.2,0.5c-1.4,0-2.7-0.2-3.8-0.7s-2.1-1-2.9-1.7l0.8-1.3
			c0.1-0.2,0.2-0.3,0.4-0.4s0.3-0.1,0.6-0.1c0.2,0,0.5,0.1,0.7,0.3c0.3,0.2,0.6,0.4,1,0.6c0.4,0.2,0.8,0.4,1.4,0.6
			c0.5,0.2,1.2,0.3,2,0.3c0.7,0,1.3-0.1,1.8-0.3c0.5-0.2,0.9-0.4,1.3-0.7c0.3-0.3,0.6-0.6,0.8-1c0.2-0.4,0.2-0.8,0.2-1.3
			c0-0.6-0.1-1-0.4-1.4c-0.3-0.4-0.7-0.7-1.2-0.9c-0.5-0.3-1-0.5-1.7-0.7s-1.3-0.4-1.9-0.6c-0.7-0.2-1.3-0.5-1.9-0.7
			c-0.6-0.3-1.2-0.6-1.7-1c-0.5-0.4-0.9-0.9-1.2-1.5c-0.3-0.6-0.4-1.3-0.4-2.2c0-0.8,0.2-1.5,0.5-2.2c0.3-0.7,0.8-1.3,1.4-1.9
			c0.6-0.5,1.3-1,2.2-1.3c0.9-0.3,1.9-0.5,3-0.5c1.3,0,2.5,0.2,3.5,0.6c1,0.4,1.9,1,2.7,1.7L565.4,92z"/>
		<path class="st0" d="M571.3,91.5c1.1-1.1,2.3-1.9,3.6-2.4s2.7-0.8,4.2-0.8c1.1,0,2.1,0.2,3,0.6c0.9,0.4,1.6,0.9,2.2,1.5
			s1,1.5,1.3,2.4c0.3,0.9,0.5,2,0.5,3.1v12.8h-1.6c-0.3,0-0.6-0.1-0.8-0.2c-0.2-0.1-0.3-0.3-0.4-0.7l-0.4-1.9
			c-0.5,0.5-1,0.9-1.5,1.3c-0.5,0.4-1,0.7-1.6,0.9c-0.6,0.3-1.1,0.5-1.8,0.6c-0.6,0.1-1.3,0.2-2.1,0.2c-0.8,0-1.5-0.1-2.2-0.3
			c-0.7-0.2-1.3-0.5-1.8-1c-0.5-0.4-0.9-1-1.2-1.6c-0.3-0.7-0.4-1.4-0.4-2.4c0-0.8,0.2-1.5,0.7-2.3c0.4-0.7,1.1-1.4,2.1-1.9
			s2.2-1,3.8-1.4c1.6-0.4,3.5-0.6,5.8-0.6v-1.6c0-1.5-0.3-2.7-1-3.5c-0.7-0.8-1.6-1.2-2.9-1.2c-0.9,0-1.6,0.1-2.2,0.3
			c-0.6,0.2-1.1,0.5-1.5,0.7c-0.4,0.3-0.8,0.5-1.1,0.7s-0.6,0.3-0.9,0.3c-0.2,0-0.4-0.1-0.6-0.2c-0.2-0.1-0.3-0.3-0.4-0.5
			L571.3,91.5z M582.7,99.7c-1.6,0.1-3,0.2-4.1,0.4c-1.1,0.2-2.1,0.5-2.8,0.8c-0.7,0.3-1.2,0.7-1.6,1.2c-0.3,0.4-0.5,0.9-0.5,1.5
			c0,0.5,0.1,1,0.3,1.4c0.2,0.4,0.4,0.7,0.7,0.9c0.3,0.2,0.6,0.4,1,0.5s0.8,0.2,1.3,0.2c0.6,0,1.2-0.1,1.7-0.2s1-0.3,1.4-0.5
			c0.5-0.2,0.9-0.5,1.3-0.8c0.4-0.3,0.8-0.7,1.2-1.1V99.7z"/>
		<path class="st0" d="M595.7,92.7c0.6-1.4,1.4-2.4,2.3-3.2c0.9-0.8,2-1.2,3.4-1.2c0.4,0,0.8,0,1.2,0.1s0.7,0.2,1,0.4l-0.3,2.6
			c-0.1,0.3-0.3,0.5-0.6,0.5c-0.2,0-0.5,0-0.8-0.1c-0.4-0.1-0.8-0.1-1.2-0.1c-0.6,0-1.2,0.1-1.7,0.3s-0.9,0.5-1.3,0.8
			c-0.4,0.4-0.7,0.8-1,1.3c-0.3,0.5-0.6,1.1-0.8,1.8v12.6h-3.5v-20h2c0.4,0,0.6,0.1,0.8,0.2s0.2,0.4,0.3,0.7L595.7,92.7z"/>
		<path class="st0" d="M612.2,82.5c0,0.3-0.1,0.7-0.2,1c-0.1,0.3-0.3,0.6-0.6,0.8c-0.2,0.2-0.5,0.4-0.8,0.5c-0.3,0.1-0.6,0.2-1,0.2
			c-0.3,0-0.7-0.1-1-0.2c-0.3-0.1-0.6-0.3-0.8-0.5c-0.2-0.2-0.4-0.5-0.5-0.8c-0.1-0.3-0.2-0.6-0.2-1s0.1-0.7,0.2-1
			c0.1-0.3,0.3-0.6,0.5-0.8c0.2-0.2,0.5-0.4,0.8-0.5c0.3-0.1,0.6-0.2,1-0.2c0.3,0,0.7,0.1,1,0.2s0.6,0.3,0.8,0.5
			c0.2,0.2,0.4,0.5,0.6,0.8C612.1,81.8,612.2,82.1,612.2,82.5z M611.4,88.7v20h-3.5v-20H611.4z"/>
		<path class="st0" d="M617.7,91.5c1.1-1.1,2.3-1.9,3.6-2.4s2.7-0.8,4.2-0.8c1.1,0,2.1,0.2,3,0.6c0.9,0.4,1.6,0.9,2.2,1.5
			s1,1.5,1.3,2.4c0.3,0.9,0.5,2,0.5,3.1v12.8h-1.6c-0.3,0-0.6-0.1-0.8-0.2c-0.2-0.1-0.3-0.3-0.4-0.7l-0.4-1.9
			c-0.5,0.5-1,0.9-1.5,1.3c-0.5,0.4-1,0.7-1.6,0.9c-0.6,0.3-1.1,0.5-1.8,0.6c-0.6,0.1-1.3,0.2-2.1,0.2c-0.8,0-1.5-0.1-2.2-0.3
			c-0.7-0.2-1.3-0.5-1.8-1c-0.5-0.4-0.9-1-1.2-1.6c-0.3-0.7-0.4-1.4-0.4-2.4c0-0.8,0.2-1.5,0.7-2.3c0.4-0.7,1.1-1.4,2.1-1.9
			s2.2-1,3.8-1.4c1.6-0.4,3.5-0.6,5.8-0.6v-1.6c0-1.5-0.3-2.7-1-3.5c-0.7-0.8-1.6-1.2-2.9-1.2c-0.9,0-1.6,0.1-2.2,0.3
			c-0.6,0.2-1.1,0.5-1.5,0.7c-0.4,0.3-0.8,0.5-1.1,0.7s-0.6,0.3-0.9,0.3c-0.2,0-0.4-0.1-0.6-0.2c-0.2-0.1-0.3-0.3-0.4-0.5
			L617.7,91.5z M629,99.7c-1.6,0.1-3,0.2-4.1,0.4c-1.1,0.2-2.1,0.5-2.8,0.8c-0.7,0.3-1.2,0.7-1.6,1.2c-0.3,0.4-0.5,0.9-0.5,1.5
			c0,0.5,0.1,1,0.3,1.4c0.2,0.4,0.4,0.7,0.7,0.9c0.3,0.2,0.6,0.4,1,0.5s0.8,0.2,1.3,0.2c0.6,0,1.2-0.1,1.7-0.2s1-0.3,1.4-0.5
			c0.5-0.2,0.9-0.5,1.3-0.8c0.4-0.3,0.8-0.7,1.2-1.1V99.7z"/>
		<path class="st0" d="M642.4,79.7v29h-3.5v-29H642.4z"/>
		<path class="st0" d="M665.2,105.9c-0.4,0.5-1,1-1.6,1.4c-0.6,0.4-1.3,0.7-1.9,1c-0.7,0.2-1.4,0.4-2.1,0.6
			c-0.7,0.1-1.5,0.2-2.2,0.2c-1.4,0-2.6-0.2-3.8-0.7s-2.2-1.1-3-2c-0.8-0.9-1.5-2-2-3.3s-0.7-2.8-0.7-4.6c0-1.4,0.2-2.7,0.6-3.9
			c0.4-1.2,1-2.3,1.8-3.1c0.8-0.9,1.8-1.6,2.9-2.1c1.2-0.5,2.5-0.8,3.9-0.8c1.2,0,2.3,0.2,3.3,0.6c1,0.4,1.9,1,2.6,1.7
			c0.7,0.8,1.3,1.7,1.7,2.8c0.4,1.1,0.6,2.4,0.6,3.8c0,0.6-0.1,0.9-0.2,1.1s-0.3,0.3-0.7,0.3h-13.3c0,1.3,0.2,2.4,0.5,3.3
			c0.3,0.9,0.7,1.7,1.3,2.3c0.6,0.6,1.2,1.1,2,1.4c0.8,0.3,1.6,0.5,2.6,0.5c0.9,0,1.6-0.1,2.3-0.3c0.6-0.2,1.2-0.4,1.6-0.7
			c0.5-0.2,0.8-0.5,1.2-0.7c0.3-0.2,0.6-0.3,0.8-0.3c0.3,0,0.5,0.1,0.7,0.3L665.2,105.9z M662.4,96.5c0-0.8-0.1-1.6-0.3-2.2
			c-0.2-0.7-0.6-1.3-1-1.8c-0.4-0.5-1-0.9-1.6-1.1c-0.6-0.3-1.3-0.4-2.1-0.4c-1.7,0-3,0.5-4,1.5c-1,1-1.6,2.3-1.8,4.1H662.4z"/>
		<path class="st0" d="M682.4,92c-0.2,0.3-0.4,0.4-0.7,0.4c-0.2,0-0.4-0.1-0.7-0.2c-0.2-0.1-0.6-0.3-0.9-0.5
			c-0.4-0.2-0.8-0.3-1.3-0.5s-1.1-0.2-1.8-0.2c-0.6,0-1.1,0.1-1.6,0.2s-0.9,0.4-1.2,0.6c-0.3,0.3-0.6,0.6-0.8,0.9
			c-0.2,0.3-0.3,0.7-0.3,1.1c0,0.5,0.1,0.9,0.4,1.3c0.3,0.3,0.7,0.6,1.2,0.9c0.5,0.2,1,0.5,1.7,0.7s1.3,0.4,1.9,0.6
			c0.7,0.2,1.3,0.5,1.9,0.7c0.6,0.3,1.2,0.6,1.7,1c0.5,0.4,0.9,0.9,1.2,1.4s0.4,1.3,0.4,2.1c0,0.9-0.2,1.8-0.5,2.6
			c-0.3,0.8-0.8,1.5-1.5,2s-1.4,1-2.4,1.3c-0.9,0.3-2,0.5-3.2,0.5c-1.4,0-2.7-0.2-3.8-0.7s-2.1-1-2.9-1.7l0.8-1.3
			c0.1-0.2,0.2-0.3,0.4-0.4s0.3-0.1,0.6-0.1c0.2,0,0.5,0.1,0.7,0.3c0.3,0.2,0.6,0.4,1,0.6c0.4,0.2,0.8,0.4,1.4,0.6
			c0.5,0.2,1.2,0.3,2,0.3c0.7,0,1.3-0.1,1.8-0.3c0.5-0.2,0.9-0.4,1.3-0.7c0.3-0.3,0.6-0.6,0.8-1c0.2-0.4,0.2-0.8,0.2-1.3
			c0-0.6-0.1-1-0.4-1.4c-0.3-0.4-0.7-0.7-1.2-0.9c-0.5-0.3-1-0.5-1.7-0.7s-1.3-0.4-1.9-0.6c-0.7-0.2-1.3-0.5-1.9-0.7
			c-0.6-0.3-1.2-0.6-1.7-1c-0.5-0.4-0.9-0.9-1.2-1.5c-0.3-0.6-0.4-1.3-0.4-2.2c0-0.8,0.2-1.5,0.5-2.2c0.3-0.7,0.8-1.3,1.4-1.9
			c0.6-0.5,1.3-1,2.2-1.3c0.9-0.3,1.9-0.5,3-0.5c1.3,0,2.5,0.2,3.5,0.6c1,0.4,1.9,1,2.7,1.7L682.4,92z"/>
		<path class="st0" d="M340.5,142.6c-0.4,0.5-1,1-1.6,1.4c-0.6,0.4-1.3,0.7-1.9,1c-0.7,0.2-1.4,0.4-2.1,0.6
			c-0.7,0.1-1.5,0.2-2.2,0.2c-1.4,0-2.6-0.2-3.8-0.7c-1.2-0.5-2.2-1.1-3-2c-0.8-0.9-1.5-2-2-3.3c-0.5-1.3-0.7-2.8-0.7-4.6
			c0-1.4,0.2-2.7,0.6-3.9s1-2.3,1.8-3.1c0.8-0.9,1.8-1.6,2.9-2.1c1.2-0.5,2.5-0.8,3.9-0.8c1.2,0,2.3,0.2,3.3,0.6
			c1,0.4,1.9,1,2.6,1.7c0.7,0.8,1.3,1.7,1.7,2.8c0.4,1.1,0.6,2.4,0.6,3.8c0,0.6-0.1,0.9-0.2,1.1c-0.1,0.2-0.3,0.3-0.7,0.3h-13.3
			c0,1.3,0.2,2.4,0.5,3.3c0.3,0.9,0.7,1.7,1.3,2.3c0.6,0.6,1.2,1.1,2,1.4s1.6,0.5,2.6,0.5c0.9,0,1.6-0.1,2.3-0.3
			c0.6-0.2,1.2-0.4,1.6-0.7c0.5-0.2,0.8-0.5,1.2-0.7c0.3-0.2,0.6-0.3,0.8-0.3c0.3,0,0.5,0.1,0.7,0.3L340.5,142.6z M337.7,133.2
			c0-0.8-0.1-1.6-0.3-2.2c-0.2-0.7-0.6-1.3-1-1.8s-1-0.9-1.6-1.1c-0.6-0.3-1.3-0.4-2.1-0.4c-1.7,0-3,0.5-4,1.5c-1,1-1.6,2.3-1.8,4.1
			H337.7z"/>
		<path class="st0" d="M361.8,145.4H358v-28.2h3.8V145.4z"/>
		<path class="st0" d="M372.2,128.3c0.4-0.5,0.9-0.9,1.4-1.3c0.5-0.4,1-0.7,1.5-1s1.1-0.5,1.7-0.7c0.6-0.2,1.3-0.2,2-0.2
			c1.1,0,2.1,0.2,2.9,0.5c0.8,0.4,1.5,0.9,2.1,1.5c0.6,0.7,1,1.5,1.3,2.4c0.3,0.9,0.4,2,0.4,3.1v12.7H382v-12.7c0-1.5-0.3-2.7-1-3.5
			s-1.7-1.3-3.1-1.3c-1,0-2,0.2-2.9,0.7s-1.7,1.2-2.5,2v14.7h-3.5v-20h2.1c0.5,0,0.8,0.2,0.9,0.7L372.2,128.3z"/>
		<path class="st0" d="M408.4,116.4v29h-2.1c-0.5,0-0.8-0.2-0.9-0.7l-0.3-2.4c-0.9,1-1.8,1.9-2.9,2.5c-1.1,0.6-2.4,0.9-3.8,0.9
			c-1.1,0-2.2-0.2-3.1-0.7c-0.9-0.4-1.7-1.1-2.4-1.9s-1.2-1.9-1.5-3.2c-0.4-1.3-0.5-2.7-0.5-4.4c0-1.5,0.2-2.8,0.6-4.1
			c0.4-1.3,1-2.4,1.7-3.3s1.6-1.7,2.7-2.2c1.1-0.5,2.3-0.8,3.6-0.8c1.2,0,2.3,0.2,3.1,0.6c0.9,0.4,1.7,1,2.3,1.7v-11H408.4z
			 M404.9,130.2c-0.7-0.9-1.4-1.5-2.1-1.8c-0.8-0.3-1.6-0.5-2.6-0.5c-1.9,0-3.3,0.7-4.3,2c-1,1.3-1.5,3.2-1.5,5.7
			c0,1.3,0.1,2.4,0.3,3.3c0.2,0.9,0.6,1.7,1,2.3s1,1,1.6,1.3c0.6,0.3,1.3,0.4,2.1,0.4c1.2,0,2.2-0.3,3-0.8c0.9-0.5,1.7-1.3,2.4-2.2
			V130.2z"/>
		<path class="st0" d="M431.3,125.4v20h-2.1c-0.5,0-0.8-0.2-0.9-0.7l-0.3-2.1c-0.9,1-1.8,1.7-2.9,2.3c-1.1,0.6-2.3,0.9-3.7,0.9
			c-1.1,0-2.1-0.2-2.9-0.5s-1.5-0.9-2.1-1.5s-1-1.5-1.3-2.4c-0.3-0.9-0.4-2-0.4-3.1v-12.7h3.5v12.7c0,1.5,0.3,2.7,1,3.5
			s1.7,1.2,3.2,1.2c1,0,2-0.2,2.9-0.7s1.7-1.2,2.5-2v-14.7H431.3z"/>
		<path class="st0" d="M449.5,128.7c-0.2,0.3-0.4,0.4-0.7,0.4c-0.2,0-0.4-0.1-0.7-0.2c-0.2-0.1-0.6-0.3-0.9-0.5
			c-0.4-0.2-0.8-0.3-1.3-0.5s-1.1-0.2-1.8-0.2c-0.6,0-1.1,0.1-1.6,0.2s-0.9,0.4-1.2,0.6c-0.3,0.3-0.6,0.6-0.8,0.9
			c-0.2,0.3-0.3,0.7-0.3,1.1c0,0.5,0.1,0.9,0.4,1.3c0.3,0.3,0.7,0.6,1.2,0.9c0.5,0.2,1,0.5,1.7,0.7s1.3,0.4,1.9,0.6
			c0.7,0.2,1.3,0.5,1.9,0.7c0.6,0.3,1.2,0.6,1.7,1c0.5,0.4,0.9,0.9,1.2,1.4s0.4,1.3,0.4,2.1c0,0.9-0.2,1.8-0.5,2.6
			c-0.3,0.8-0.8,1.5-1.5,2s-1.4,1-2.4,1.3c-0.9,0.3-2,0.5-3.2,0.5c-1.4,0-2.7-0.2-3.8-0.7s-2.1-1-2.9-1.7l0.8-1.3
			c0.1-0.2,0.2-0.3,0.4-0.4s0.3-0.1,0.6-0.1c0.2,0,0.5,0.1,0.7,0.3c0.3,0.2,0.6,0.4,1,0.6c0.4,0.2,0.8,0.4,1.4,0.6
			c0.5,0.2,1.2,0.3,2,0.3c0.7,0,1.3-0.1,1.8-0.3c0.5-0.2,0.9-0.4,1.3-0.7c0.3-0.3,0.6-0.6,0.8-1c0.2-0.4,0.2-0.8,0.2-1.3
			c0-0.6-0.1-1-0.4-1.4c-0.3-0.4-0.7-0.7-1.2-0.9c-0.5-0.3-1-0.5-1.7-0.7s-1.3-0.4-1.9-0.6c-0.7-0.2-1.3-0.5-1.9-0.7
			c-0.6-0.3-1.2-0.6-1.7-1c-0.5-0.4-0.9-0.9-1.2-1.5c-0.3-0.6-0.4-1.3-0.4-2.2c0-0.8,0.2-1.5,0.5-2.2c0.3-0.7,0.8-1.3,1.4-1.9
			c0.6-0.5,1.3-1,2.2-1.3c0.9-0.3,1.9-0.5,3-0.5c1.3,0,2.5,0.2,3.5,0.6c1,0.4,1.9,1,2.7,1.7L449.5,128.7z"/>
		<path class="st0" d="M462,145.7c-1.6,0-2.8-0.4-3.6-1.3c-0.8-0.9-1.3-2.1-1.3-3.8v-12.2h-2.4c-0.2,0-0.4-0.1-0.5-0.2
			s-0.2-0.3-0.2-0.6v-1.4l3.3-0.4l0.8-6.2c0-0.2,0.1-0.4,0.3-0.5s0.3-0.2,0.5-0.2h1.8v6.9h5.8v2.5h-5.8v12c0,0.8,0.2,1.5,0.6,1.9
			s0.9,0.6,1.6,0.6c0.4,0,0.7,0,1-0.1c0.3-0.1,0.5-0.2,0.7-0.3s0.4-0.2,0.5-0.3s0.3-0.1,0.4-0.1c0.2,0,0.3,0.1,0.5,0.3l1,1.7
			c-0.6,0.6-1.3,1-2.2,1.3C463.8,145.5,462.9,145.7,462,145.7z"/>
		<path class="st0" d="M474.3,129.4c0.6-1.4,1.4-2.4,2.3-3.2c0.9-0.8,2-1.2,3.4-1.2c0.4,0,0.8,0,1.2,0.1s0.7,0.2,1,0.4l-0.3,2.6
			c-0.1,0.3-0.3,0.5-0.6,0.5c-0.2,0-0.5,0-0.8-0.1c-0.4-0.1-0.8-0.1-1.2-0.1c-0.6,0-1.2,0.1-1.7,0.3s-0.9,0.5-1.3,0.8
			c-0.4,0.4-0.7,0.8-1,1.3c-0.3,0.5-0.6,1.1-0.8,1.8v12.6H471v-20h2c0.4,0,0.6,0.1,0.8,0.2s0.2,0.4,0.3,0.7L474.3,129.4z"/>
		<path class="st0" d="M490.8,119.2c0,0.3-0.1,0.7-0.2,1c-0.1,0.3-0.3,0.6-0.6,0.8c-0.2,0.2-0.5,0.4-0.8,0.5c-0.3,0.1-0.6,0.2-1,0.2
			c-0.3,0-0.7-0.1-1-0.2c-0.3-0.1-0.6-0.3-0.8-0.5c-0.2-0.2-0.4-0.5-0.5-0.8c-0.1-0.3-0.2-0.6-0.2-1s0.1-0.7,0.2-1
			c0.1-0.3,0.3-0.6,0.5-0.8c0.2-0.2,0.5-0.4,0.8-0.5c0.3-0.1,0.6-0.2,1-0.2c0.3,0,0.7,0.1,1,0.2s0.6,0.3,0.8,0.5
			c0.2,0.2,0.4,0.5,0.6,0.8C490.7,118.5,490.8,118.8,490.8,119.2z M490,125.4v20h-3.5v-20H490z"/>
		<path class="st0" d="M496.3,128.2c1.1-1.1,2.3-1.9,3.6-2.4s2.7-0.8,4.2-0.8c1.1,0,2.1,0.2,3,0.6c0.9,0.4,1.6,0.9,2.2,1.5
			s1,1.5,1.3,2.4c0.3,0.9,0.5,2,0.5,3.1v12.8h-1.6c-0.3,0-0.6-0.1-0.8-0.2c-0.2-0.1-0.3-0.3-0.4-0.7l-0.4-1.9
			c-0.5,0.5-1,0.9-1.5,1.3c-0.5,0.4-1,0.7-1.6,0.9c-0.6,0.3-1.1,0.5-1.8,0.6c-0.6,0.1-1.3,0.2-2.1,0.2c-0.8,0-1.5-0.1-2.2-0.3
			c-0.7-0.2-1.3-0.5-1.8-1c-0.5-0.4-0.9-1-1.2-1.6c-0.3-0.7-0.4-1.4-0.4-2.4c0-0.8,0.2-1.5,0.7-2.3c0.4-0.7,1.1-1.4,2.1-1.9
			s2.2-1,3.8-1.4c1.6-0.4,3.5-0.6,5.8-0.6v-1.6c0-1.5-0.3-2.7-1-3.5c-0.7-0.8-1.6-1.2-2.9-1.2c-0.9,0-1.6,0.1-2.2,0.3
			c-0.6,0.2-1.1,0.5-1.5,0.7c-0.4,0.3-0.8,0.5-1.1,0.7s-0.6,0.3-0.9,0.3c-0.2,0-0.4-0.1-0.6-0.2c-0.2-0.1-0.3-0.3-0.4-0.5
			L496.3,128.2z M507.6,136.4c-1.6,0.1-3,0.2-4.1,0.4c-1.1,0.2-2.1,0.5-2.8,0.8c-0.7,0.3-1.2,0.7-1.6,1.2c-0.3,0.4-0.5,0.9-0.5,1.5
			c0,0.5,0.1,1,0.3,1.4c0.2,0.4,0.4,0.7,0.7,0.9c0.3,0.2,0.6,0.4,1,0.5s0.8,0.2,1.3,0.2c0.6,0,1.2-0.1,1.7-0.2s1-0.3,1.4-0.5
			c0.5-0.2,0.9-0.5,1.3-0.8c0.4-0.3,0.8-0.7,1.2-1.1V136.4z"/>
		<path class="st0" d="M521,116.4v29h-3.5v-29H521z"/>
		<path class="st0" d="M543.8,142.6c-0.4,0.5-1,1-1.6,1.4c-0.6,0.4-1.3,0.7-1.9,1c-0.7,0.2-1.4,0.4-2.1,0.6
			c-0.7,0.1-1.5,0.2-2.2,0.2c-1.4,0-2.6-0.2-3.8-0.7s-2.2-1.1-3-2c-0.8-0.9-1.5-2-2-3.3s-0.7-2.8-0.7-4.6c0-1.4,0.2-2.7,0.6-3.9
			c0.4-1.2,1-2.3,1.8-3.1c0.8-0.9,1.8-1.6,2.9-2.1c1.2-0.5,2.5-0.8,3.9-0.8c1.2,0,2.3,0.2,3.3,0.6c1,0.4,1.9,1,2.6,1.7
			c0.7,0.8,1.3,1.7,1.7,2.8c0.4,1.1,0.6,2.4,0.6,3.8c0,0.6-0.1,0.9-0.2,1.1s-0.3,0.3-0.7,0.3h-13.3c0,1.3,0.2,2.4,0.5,3.3
			c0.3,0.9,0.7,1.7,1.3,2.3c0.6,0.6,1.2,1.1,2,1.4c0.8,0.3,1.6,0.5,2.6,0.5c0.9,0,1.6-0.1,2.3-0.3c0.6-0.2,1.2-0.4,1.6-0.7
			c0.5-0.2,0.8-0.5,1.2-0.7c0.3-0.2,0.6-0.3,0.8-0.3c0.3,0,0.5,0.1,0.7,0.3L543.8,142.6z M541,133.2c0-0.8-0.1-1.6-0.3-2.2
			c-0.2-0.7-0.6-1.3-1-1.8c-0.4-0.5-1-0.9-1.6-1.1c-0.6-0.3-1.3-0.4-2.1-0.4c-1.7,0-3,0.5-4,1.5c-1,1-1.6,2.3-1.8,4.1H541z"/>
		<path class="st0" d="M561,128.7c-0.2,0.3-0.4,0.4-0.7,0.4c-0.2,0-0.4-0.1-0.7-0.2c-0.2-0.1-0.6-0.3-0.9-0.5
			c-0.4-0.2-0.8-0.3-1.3-0.5s-1.1-0.2-1.8-0.2c-0.6,0-1.1,0.1-1.6,0.2s-0.9,0.4-1.2,0.6c-0.3,0.3-0.6,0.6-0.8,0.9
			c-0.2,0.3-0.3,0.7-0.3,1.1c0,0.5,0.1,0.9,0.4,1.3c0.3,0.3,0.7,0.6,1.2,0.9c0.5,0.2,1,0.5,1.7,0.7s1.3,0.4,1.9,0.6
			c0.7,0.2,1.3,0.5,1.9,0.7c0.6,0.3,1.2,0.6,1.7,1c0.5,0.4,0.9,0.9,1.2,1.4s0.4,1.3,0.4,2.1c0,0.9-0.2,1.8-0.5,2.6
			c-0.3,0.8-0.8,1.5-1.5,2s-1.4,1-2.4,1.3c-0.9,0.3-2,0.5-3.2,0.5c-1.4,0-2.7-0.2-3.8-0.7s-2.1-1-2.9-1.7l0.8-1.3
			c0.1-0.2,0.2-0.3,0.4-0.4s0.3-0.1,0.6-0.1c0.2,0,0.5,0.1,0.7,0.3c0.3,0.2,0.6,0.4,1,0.6c0.4,0.2,0.8,0.4,1.4,0.6
			c0.5,0.2,1.2,0.3,2,0.3c0.7,0,1.3-0.1,1.8-0.3c0.5-0.2,0.9-0.4,1.3-0.7c0.3-0.3,0.6-0.6,0.8-1c0.2-0.4,0.2-0.8,0.2-1.3
			c0-0.6-0.1-1-0.4-1.4c-0.3-0.4-0.7-0.7-1.2-0.9c-0.5-0.3-1-0.5-1.7-0.7s-1.3-0.4-1.9-0.6c-0.7-0.2-1.3-0.5-1.9-0.7
			c-0.6-0.3-1.2-0.6-1.7-1c-0.5-0.4-0.9-0.9-1.2-1.5c-0.3-0.6-0.4-1.3-0.4-2.2c0-0.8,0.2-1.5,0.5-2.2c0.3-0.7,0.8-1.3,1.4-1.9
			c0.6-0.5,1.3-1,2.2-1.3c0.9-0.3,1.9-0.5,3-0.5c1.3,0,2.5,0.2,3.5,0.6c1,0.4,1.9,1,2.7,1.7L561,128.7z"/>
	</g>
	<g>
		<path class="st0" d="M341,69.5c5.8,0,10.1-1.1,13.1-3.3c3-2.2,4.4-5.4,4.4-9.6V56c0-2.6-0.5-4.6-1.5-6.2c-1-1.6-2.5-2.9-4.4-3.8
			c-2-0.9-4.6-1.6-7.7-2.1l-3.3-0.5c-2.4-0.4-4-0.8-4.9-1.3c-0.9-0.5-1.4-1.2-1.4-2.3v-0.1c0-1,0.6-1.7,1.8-2.3
			c1.2-0.5,2.8-0.8,4.9-0.8c2.1,0,4.1,0.2,6,0.6c2.2,0.5,4.2,1.2,5.8,2l3.7-8.2c-2.3-1.1-4.6-1.8-6.9-2.4c-2.6-0.6-5.4-0.9-8.3-0.9
			c-5.4,0-9.7,1.1-12.8,3.2c-3.1,2.1-4.6,5.2-4.6,9.2v0.4c0,3.7,1.1,6.4,3.2,8.2c2.1,1.8,5.3,3,9.4,3.7l2.9,0.5
			c2,0.3,3.5,0.6,4.6,0.9c1,0.3,1.8,0.7,2.4,1.1c0.5,0.5,0.8,1.2,0.8,2v0.1c0,1.2-0.6,2.1-1.9,2.7c-1.2,0.6-3,0.9-5.2,0.9
			c-2.1,0-4.3-0.3-6.7-0.8c-2.4-0.5-4.8-1.3-7.2-2.4l-3,8.4c2.3,1.2,5.1,2.1,8.4,2.8C335.4,69.3,338.2,69.5,341,69.5L341,69.5
			L341,69.5z M391.5,69.1h11c-3.9-12.6-8.2-26.1-12.9-40.8h-15.4c-4.8,14.8-9.1,28.4-12.8,40.8h10.9l2.1-7.7h15L391.5,69.1
			L391.5,69.1z M376.7,53.1l0.8-2.7l1.8-6.2c0.4-1.5,0.8-2.8,1.1-3.9c0.3-1.2,0.6-2.2,0.9-3.1h0.8l1.4,4.5c0.8,2.6,1.7,5.5,2.6,8.8
			l0.8,2.8H376.7L376.7,53.1z M408.3,69.1h10.2V53.4c0-3.9,0-6.6-0.1-8.1h0.2c1.3,1.9,3.2,4.4,5.5,7.4L437,69.1h9.4V28.3h-10.2v15.6
			c0,3.8,0,6.5,0.1,8.1H436c-1.3-1.9-3.2-4.4-5.5-7.4l-12.8-16.3h-9.4V69.1L408.3,69.1z M463.5,69.1h10.8V37.2h11.2v-8.9h-33.2v8.9
			h11.2V69.1L463.5,69.1z M513.8,69.1h11c-3.9-12.6-8.2-26.1-12.9-40.8h-15.4c-4.8,14.8-9.1,28.4-12.8,40.8h10.9l2.1-7.7h15
			L513.8,69.1L513.8,69.1z M499,53.1l0.8-2.7l1.8-6.2c0.4-1.5,0.8-2.8,1.1-3.9c0.3-1.2,0.6-2.2,0.9-3.1h0.8l1.4,4.5
			c0.8,2.6,1.7,5.5,2.6,8.8l0.8,2.8H499L499,53.1z M530.6,69.1h10.2V53.4c0-3.9,0-6.6-0.1-8.1h0.2c1.3,1.9,3.2,4.4,5.5,7.4
			l12.8,16.3h9.4V28.3h-10.2v15.6c0,3.8,0,6.5,0.1,8.1h-0.2c-1.3-1.9-3.2-4.4-5.5-7.4l-12.8-16.3h-9.4V69.1L530.6,69.1z M576.5,69.1
			h18c6.8,0,12-1.6,15.4-4.8c3.5-3.2,5.2-7.7,5.2-13.5v-4.7c0-5.9-1.8-10.4-5.3-13.4c-3.5-2.9-8.6-4.4-15.3-4.4h-18.1V69.1
			L576.5,69.1z M587.2,60.8V36.5h7.2c1.8,0,3.3,0.2,4.5,0.6c1.2,0.4,2.2,1,3.1,1.8c1.6,1.6,2.4,4,2.4,7.2v4.6c0,3.2-0.8,5.6-2.4,7.4
			c-1.7,1.8-4.2,2.7-7.5,2.7H587.2L587.2,60.8z M622,69.1h29.9v-8.9h-19.1V53h18.4v-8.9h-18.4v-6.9h19.1v-8.9H622V69.1L622,69.1z
			 M696,69.1c-3.1-5.8-6-10.9-8.5-15.3c2.2-1.1,3.8-2.7,5.1-4.7c1.2-2,1.8-4.3,1.8-7v-0.7c0-4.4-1.3-7.7-3.9-9.9
			c-2.6-2.1-6.3-3.2-11.1-3.2h-20.4v40.8h10.8V55.7h7.5c2.1,3.8,4.4,8.3,6.8,13.3H696L696,69.1z M669.9,36.5h8.2
			c3.7,0,5.5,1.8,5.5,5.3v0.5c0,1.7-0.5,3-1.5,3.9c-1,0.9-2.4,1.3-4.1,1.3h-8.1V36.5L669.9,36.5z"/>
	</g>
	<g>
		<polygon class="st0" points="126.1,71 126.1,27.9 97.6,27.9 113.8,71 		"/>
		<polygon class="st0" points="204.6,59.7 157.9,59.7 157.9,71 204.6,71 204.6,102.8 157.9,102.8 157.9,114.1 236.4,114.1 
			236.4,27.9 204.6,27.9 		"/>
		
			<rect x="236.4" y="4" transform="matrix(-1 7.430403e-05 -7.430403e-05 -1 504.6937 31.8853)" class="st1" width="31.8" height="23.8"/>
		<polygon class="st1" points="268.3,145.9 268.3,114.1 157.9,114.1 157.9,102.8 204.6,102.8 204.6,71 157.9,71 157.9,59.7 
			204.6,59.7 204.6,27.9 147.9,27.8 147.9,27.9 126.1,27.9 126.1,71 71,71 59,102.8 126.1,102.8 126.1,145.9 		"/>
	</g>
	<g>
		<polygon class="st0" points="79.8,71 75.4,59.2 71,71 		"/>
		<polygon class="st0" points="91.8,102.8 59,102.8 42.8,145.9 108,145.9 		"/>
	</g>
</g>
</svg>
